# xmcd
#
# Track frame offsets: 
#        150
#        12611
#        31410
#        48089
#        59625
#        74833
#        87909
#        101647
#        114110
#        128270
#        147253
#
# Disc length: 3229 seconds
#
# Revision: 0
# Processed by: cddbd v1.5.2PL0 Copyright (c) Steve Scherf et al.
# Submitted via: ExactAudioCopy v1.3
#
DISCID=950c9b0b
DTITLE=Angel Forrest - Wonderland
DYEAR=2007
DGENRE=Blues Rock
TTITLE0=Children Go Where I Send Thee
TTITLE1=Baby It's Cold Outside
TTITLE2=God Rest Ye Merry Gentlemen
TTITLE3=Let It Snow
TTITLE4=Santa Claus Is Coming To Town
TTITLE5=Winter Wonderland
TTITLE6=Sleigh Ride
TTITLE7=Rockin' Around The Christmas Tree
TTITLE8=I Saw Mommy Kissing Santa Claus
TTITLE9=Have Yourself A Merry Little Christmas
TTITLE10=Back To You... (This Christmas)
EXTD=
EXTT0=
EXTT1=
EXTT2=
EXTT3=
EXTT4=
EXTT5=
EXTT6=
EXTT7=
EXTT8=
EXTT9=
EXTT10=
PLAYORDER=
